<mxfile host="app.diagrams.net" agent="Mozilla/5.0 (Windows NT 10.0; Win64; x64) AppleWebKit/537.36 (KHTML, like Gecko) Chrome/134.0.0.0 Safari/537.36 Edg/134.0.0.0" version="26.1.3">
  <diagram name="Page-1" id="9f46799a-70d6-7492-0946-bef42562c5a5">
    <mxGraphModel dx="1426" dy="781" grid="1" gridSize="9" guides="1" tooltips="1" connect="1" arrows="1" fold="1" page="1" pageScale="1" pageWidth="1100" pageHeight="850" background="none" math="0" shadow="0">
      <root>
        <mxCell id="0" />
        <mxCell id="1" parent="0" />
        <mxCell id="vRwWAXq_rbPXkCuD6A-I-1" value="" style="whiteSpace=wrap;html=1;strokeWidth=3;" vertex="1" parent="1">
          <mxGeometry x="630" y="90" width="410" height="620" as="geometry" />
        </mxCell>
        <mxCell id="vRwWAXq_rbPXkCuD6A-I-2" value="" style="whiteSpace=wrap;html=1;strokeWidth=2;" vertex="1" parent="1">
          <mxGeometry x="693" y="153" width="180" height="310" as="geometry" />
        </mxCell>
        <mxCell id="vRwWAXq_rbPXkCuD6A-I-3" value="" style="whiteSpace=wrap;html=1;strokeWidth=2;" vertex="1" parent="1">
          <mxGeometry x="310" y="290" width="180" height="260" as="geometry" />
        </mxCell>
        <mxCell id="vRwWAXq_rbPXkCuD6A-I-4" value="" style="whiteSpace=wrap;html=1;strokeWidth=2;" vertex="1" parent="1">
          <mxGeometry x="350" y="630" width="180" height="80" as="geometry" />
        </mxCell>
        <mxCell id="vRwWAXq_rbPXkCuD6A-I-7" value="M" style="verticalLabelPosition=middle;shadow=0;dashed=0;align=center;html=1;verticalAlign=middle;strokeWidth=2;shape=ellipse;aspect=fixed;fontSize=35;" vertex="1" parent="1">
          <mxGeometry x="180" y="560" width="60" height="60" as="geometry" />
        </mxCell>
        <mxCell id="vRwWAXq_rbPXkCuD6A-I-9" value="" style="shape=delay;whiteSpace=wrap;html=1;strokeWidth=2;direction=west;" vertex="1" parent="1">
          <mxGeometry x="90" y="360" width="80" height="40" as="geometry" />
        </mxCell>
        <mxCell id="vRwWAXq_rbPXkCuD6A-I-11" value="" style="endArrow=none;html=1;rounded=0;exitX=0;exitY=0.5;exitDx=0;exitDy=0;strokeWidth=2;" edge="1" parent="1" source="vRwWAXq_rbPXkCuD6A-I-9">
          <mxGeometry width="50" height="50" relative="1" as="geometry">
            <mxPoint x="410" y="430" as="sourcePoint" />
            <mxPoint x="310" y="380" as="targetPoint" />
          </mxGeometry>
        </mxCell>
        <mxCell id="vRwWAXq_rbPXkCuD6A-I-12" value="" style="shape=partialRectangle;whiteSpace=wrap;html=1;bottom=0;right=0;fillColor=none;strokeWidth=2;" vertex="1" parent="1">
          <mxGeometry x="210" y="510" width="100" height="50" as="geometry" />
        </mxCell>
        <mxCell id="vRwWAXq_rbPXkCuD6A-I-14" value="" style="whiteSpace=wrap;html=1;strokeWidth=2;" vertex="1" parent="1">
          <mxGeometry x="713" y="234" width="140" height="178" as="geometry" />
        </mxCell>
        <mxCell id="vRwWAXq_rbPXkCuD6A-I-15" value="" style="whiteSpace=wrap;html=1;strokeWidth=2;" vertex="1" parent="1">
          <mxGeometry x="713" y="501" width="140" height="178" as="geometry" />
        </mxCell>
        <mxCell id="vRwWAXq_rbPXkCuD6A-I-18" value="Text" style="text;html=1;align=center;verticalAlign=middle;whiteSpace=wrap;rounded=0;" vertex="1" parent="1">
          <mxGeometry x="387" y="108" width="60" height="30" as="geometry" />
        </mxCell>
      </root>
    </mxGraphModel>
  </diagram>
</mxfile>
